<?xml version="1.0" encoding="UTF-8" standalone="no"?>
<!DOCTYPE svg PUBLIC "-//W3C//DTD SVG 1.1//EN" "http://www.w3.org/Graphics/SVG/1.1/DTD/svg11.dtd">
<svg width="100%" height="100%" viewBox="0 0 661 534" version="1.1" xmlns="http://www.w3.org/2000/svg" xmlns:xlink="http://www.w3.org/1999/xlink" xml:space="preserve" xmlns:serif="http://www.serif.com/" style="fill-rule:evenodd;clip-rule:evenodd;stroke-linejoin:round;stroke-miterlimit:2;">
    <g transform="matrix(1,0,0,1,-269.795,-133.333)">
        <path d="M797.353,454.874C782.377,454.874 770.397,442.894 770.397,427.918C770.397,412.942 782.377,400.963 797.353,400.963C812.328,400.963 824.308,412.942 824.308,427.918C824.308,442.145 812.328,454.874 797.353,454.874M664.501,454.874C649.525,454.874 637.545,442.894 637.545,427.918C637.545,412.942 649.525,400.963 664.501,400.963C679.476,400.963 691.456,412.942 691.456,427.918C691.456,442.145 679.476,454.874 664.501,454.874M861.641,606.173C903.665,575.925 930.205,530.927 930.205,481.496C930.205,390.019 841.737,316.245 731.889,316.245C622.042,316.245 533.574,390.019 533.574,481.496C533.574,572.975 622.042,646.748 731.889,646.748C754.744,646.748 776.123,643.797 796.765,637.896C798.24,637.158 800.452,637.158 802.663,637.158C806.35,637.158 810.037,638.633 812.985,640.108L856.481,665.192C857.956,665.929 858.694,666.667 860.168,666.667L860.194,666.667C863.82,666.667 866.803,663.683 866.803,660.057L866.803,660.028C866.803,658.551 866.066,657.076 866.066,654.862C866.066,654.125 860.168,634.206 857.219,621.665C856.481,620.19 856.481,618.715 856.481,617.238C855.744,612.074 857.956,608.387 861.641,606.173"/>
        <path d="M585.56,298.917C568.366,298.917 554.753,285.304 554.753,268.111C554.753,250.917 568.366,237.304 585.56,237.304C602.753,237.304 616.366,250.917 616.366,268.111C616.366,284.588 602.753,298.917 585.56,298.917M427.677,298.917C410.484,298.917 396.871,285.304 396.871,268.111C396.871,250.917 410.484,237.304 427.677,237.304C444.871,237.304 458.484,250.917 458.484,268.111C458.484,284.588 444.871,298.917 427.677,298.917M508.467,133.333C376.936,133.333 269.795,221.699 269.795,331.418C269.795,391.066 301.568,444.821 352.555,480.905C356.249,483.851 359.205,488.268 359.205,494.159C359.205,495.63 358.465,497.841 358.465,499.314C354.771,514.041 348.12,538.341 347.381,539.077C346.644,541.287 345.904,542.76 345.904,544.968C345.904,549.387 349.599,553.069 354.031,553.069C355.51,553.069 356.987,552.333 358.465,551.596L410.929,521.406C414.623,519.195 419.058,517.722 423.49,517.722C425.708,517.722 427.924,517.722 430.14,518.46C454.525,525.087 481.124,529.504 507.728,529.504L521.028,529.504C515.855,514.041 512.899,497.841 512.899,480.903C512.899,381.493 610.436,300.492 730.141,300.492L743.442,300.492C726.446,205.497 627.431,133.333 508.467,133.333"/>
    </g>
</svg>
