<?xml version="1.0" encoding="UTF-8" standalone="no"?>
<!DOCTYPE svg PUBLIC "-//W3C//DTD SVG 1.1//EN" "http://www.w3.org/Graphics/SVG/1.1/DTD/svg11.dtd">
<svg width="100%" height="100%" viewBox="0 0 800 601" version="1.1" xmlns="http://www.w3.org/2000/svg" xmlns:xlink="http://www.w3.org/1999/xlink" xml:space="preserve" xmlns:serif="http://www.serif.com/" style="fill-rule:evenodd;clip-rule:evenodd;stroke-linejoin:round;stroke-miterlimit:2;">
    <g transform="matrix(1,0,0,1,2.34749e-09,-100)">
        <path d="M592.467,392.056C561.36,386.395 576.506,370.685 576.506,370.685C576.506,370.685 606.938,323.552 570.466,289.304C525.243,246.876 415.399,294.707 415.399,294.707C373.437,306.943 384.575,289.112 390.52,258.846C390.52,223.155 377.485,162.762 265.726,198.454C154.086,234.307 58.195,359.957 58.195,359.957C-8.464,443.466 0.39,508.003 0.39,508.003C17.041,650.475 178.313,689.597 303.758,698.86C435.712,708.563 613.846,656.16 667.831,548.458C721.847,440.595 623.697,397.917 592.465,392.057L592.467,392.056ZM550.718,493.999C550.718,576.043 444.599,653.079 313.532,658.697C182.496,664.426 76.597,602.753 76.597,520.709C76.597,438.533 182.495,372.663 313.532,366.987C444.6,361.303 550.718,412.028 550.718,493.999ZM287.374,421.091C155.624,435.566 170.84,551.424 170.84,551.424C170.84,551.424 169.484,588.116 206.167,606.795C283.257,645.984 362.638,622.27 402.764,573.642C442.882,525.008 419.359,406.736 287.374,421.091ZM298.607,544.063C298.607,563.3 278.662,581.072 254.12,583.707C229.554,586.417 209.713,573.083 209.713,553.781C209.713,534.529 227.32,514.393 251.932,511.993C280.199,509.452 298.607,524.737 298.607,544.063ZM338.708,498.042C343.14,505.043 339.963,515.564 331.815,521.608C323.476,527.439 313.241,526.636 308.848,519.627C304.244,512.78 305.978,501.803 314.386,496.061C324.143,489.237 334.3,491.217 338.708,498.042ZM533.102,105.853C546.521,103.423 594.388,94.596 640.961,104.838C724.272,123.08 838.611,198.668 787.167,359.552C783.408,382.544 771.26,384.37 756.774,384.37C739.464,384.37 725.503,374.159 725.503,357.895C725.503,343.79 731.723,329.478 731.723,329.478C733.541,323.545 748.178,286.675 722.068,231.577C674.145,156.064 577.736,154.974 566.34,159.288C558.67,162.096 548.587,163.981 542.717,164.925L538.497,165.555L537.901,165.634C520.449,165.634 506.481,152.317 506.481,136.142C506.481,122.559 516.144,111.066 529.399,107.54C529.399,107.54 529.683,107.105 530.129,107.009C531.086,106.824 532.074,105.934 533.102,105.853ZM559.533,210.299C559.533,210.299 694.194,186.939 678.099,322.734C678.099,323.537 677.99,324.177 677.809,324.898C676.311,334.529 667.26,341.905 656.655,341.905C644.64,341.905 634.914,332.908 634.914,321.659C634.914,321.659 656.263,230.898 559.533,250.909C547.571,250.909 538.003,241.845 538.003,230.721C538.003,219.384 547.572,210.299 559.533,210.299Z" style="fill-rule:nonzero;"/>
    </g>
</svg>
